<svg version="1.1" xmlns="http://www.w3.org/2000/svg" xmlns:xlink="http://www.w3.org/1999/xlink" width="14" height="13.89438" viewBox="0,0,14,13.89438"><g transform="translate(-233,-173.10562)"><g data-paper-data="{&quot;isPaintingLayer&quot;:true}" fill="#ffffff" fill-rule="evenodd" stroke="none" stroke-width="none" stroke-linecap="butt" stroke-linejoin="miter" stroke-miterlimit="10" stroke-dasharray="" stroke-dashoffset="0" font-family="none" font-weight="none" font-size="none" text-anchor="none" style="mix-blend-mode: normal"><path d="M247,181.60175v2.24927c0,1.73126 -1.40409,3.14898 -3.13535,3.14898h-7.71568c-1.74489,0 -3.14898,-1.41772 -3.14898,-3.14898v-2.24927c0,-0.57254 0.46349,-1.0224 1.0224,-1.0224c0.55891,0 1.0224,0.44985 1.0224,1.0224v2.24927c0,0.59981 0.49075,1.10419 1.10419,1.10419h7.71568c0.59981,0 1.09055,-0.50438 1.09055,-1.10419v-2.24927c0,-0.57254 0.46349,-1.0224 1.0224,-1.0224c0.57254,0 1.0224,0.44985 1.0224,1.0224z" data-paper-data="{&quot;origPos&quot;:null}" id="file-upload-icon" stroke="none" stroke-width="1"/><path d="M236.33844,178.07904h1.81305l1.10418,-4.37585c0.06816,-0.274 0.28627,-0.50575 0.58618,-0.57255c0.42259,-0.10906 0.85881,0.14859 0.96787,0.57255l1.10419,4.37585h1.85395c0.49075,0 0.74975,0.58481 0.39532,0.93924l-3.72152,3.72152c-0.21811,0.21947 -0.55891,0.21947 -0.77702,0l-3.72152,-3.72152c-0.35443,-0.35443 -0.09542,-0.93924 0.39532,-0.93924z" data-paper-data="{&quot;origPos&quot;:null,&quot;index&quot;:null}" id="file-upload-icon" stroke="#000000" stroke-width="0"/></g></g></svg>